<svg width="240" height="60" viewBox="0 0 240 60" fill="none" xmlns="http://www.w3.org/2000/svg">
<mask id="mask0_9_329" style="mask-type:luminance" maskUnits="userSpaceOnUse" x="2" y="0" width="44" height="44">
<path d="M45.6773 0.769226H2.32251V43.8461H45.6773V0.769226Z" fill="white"/>
</mask>
<g mask="url(#mask0_9_329)">
<path d="M45.569 22.4153C29.4193 25.2153 26.9263 27.6923 24.1082 43.7385V43.8461H23.9999H23.8915V43.7385C21.0734 27.6923 18.5806 25.2153 2.4309 22.4153H2.32251V22.3077V22.1999H2.4309C18.5806 19.3999 21.0734 16.9231 23.8915 0.876918V0.769226C23.9999 0.769226 23.9999 0.769226 23.9999 0.769226H24.1082C24.1082 0.769226 24.1082 0.769226 24.1082 0.876918C26.9263 16.9231 29.4193 19.3999 45.569 22.1999H45.6773V22.3077C45.6773 22.3077 45.6773 22.3077 45.569 22.4153Z" fill="#3491FF"/>
</g>
<path d="M55.7683 35.3846V8.53146H66.431C68.4809 8.53146 70.2272 8.92046 71.6701 9.69846C73.1129 10.4677 74.2126 11.5385 74.9692 12.9108C75.7346 14.2745 76.1173 15.8479 76.1173 17.6312C76.1173 19.4143 75.7302 20.9878 74.956 22.3514C74.1818 23.715 73.0601 24.7771 71.5909 25.5376C70.1305 26.2981 68.3621 26.6783 66.2859 26.6783H59.4897V22.1285H65.3621C66.4619 22.1285 67.368 21.9405 68.0806 21.5647C68.802 21.1801 69.3387 20.6512 69.6906 19.9782C70.0513 19.2963 70.2316 18.514 70.2316 17.6312C70.2316 16.7395 70.0513 15.9615 69.6906 15.2972C69.3387 14.6242 68.802 14.104 68.0806 13.7369C67.3592 13.361 66.4443 13.1731 65.3357 13.1731H61.4824V35.3846H55.7683ZM108.381 21.9581C108.381 24.8864 107.822 27.3776 106.705 29.4318C105.596 31.486 104.083 33.0551 102.165 34.139C100.256 35.2142 98.1096 35.7518 95.7251 35.7518C93.3236 35.7518 91.1682 35.2098 89.2591 34.1258C87.3499 33.0419 85.841 31.4729 84.7324 29.4187C83.6237 27.3645 83.0702 24.8776 83.0702 21.9581C83.0702 19.0297 83.6237 16.5385 84.7324 14.4842C85.841 12.4301 87.3499 10.8654 89.2591 9.79023C91.1682 8.70631 93.3236 8.16431 95.7251 8.16431C98.1096 8.16431 100.256 8.70631 102.165 9.79023C104.083 10.8654 105.596 12.4301 106.705 14.4842C107.822 16.5385 108.381 19.0297 108.381 21.9581ZM102.588 21.9581C102.588 20.0612 102.301 18.4615 101.73 17.1591C101.167 15.8566 100.37 14.8688 99.3414 14.1958C98.3117 13.5227 97.1063 13.1862 95.7251 13.1862C94.344 13.1862 93.1386 13.5227 92.1096 14.1958C91.08 14.8688 90.2795 15.8566 89.7073 17.1591C89.1445 18.4615 88.8635 20.0612 88.8635 21.9581C88.8635 23.8549 89.1445 25.4545 89.7073 26.757C90.2795 28.0595 91.08 29.0472 92.1096 29.7203C93.1386 30.3934 94.344 30.7299 95.7251 30.7299C97.1063 30.7299 98.3117 30.3934 99.3414 29.7203C100.37 29.0472 101.167 28.0595 101.73 26.757C102.301 25.4545 102.588 23.8549 102.588 21.9581ZM116.33 35.3846V8.53146H122.044V30.7037H133.63V35.3846H116.33ZM146.478 35.3846H140.355L149.685 8.53146H157.049L166.366 35.3846H160.243L153.472 14.6678H153.262L146.478 35.3846ZM146.096 24.8295H160.559V29.2614H146.096V24.8295ZM173.334 35.3846V8.53146H183.997C186.038 8.53146 187.78 8.89423 189.223 9.61977C190.675 10.3365 191.779 11.3549 192.535 12.6748C193.301 13.986 193.683 15.5288 193.683 17.3033C193.683 19.0865 193.296 20.6206 192.522 21.9056C191.748 23.1818 190.627 24.1608 189.157 24.8427C187.696 25.5245 185.928 25.8654 183.852 25.8654H176.713V21.3025H182.928C184.019 21.3025 184.925 21.1538 185.647 20.8566C186.368 20.5595 186.905 20.1136 187.257 19.5192C187.617 18.9248 187.798 18.1862 187.798 17.3033C187.798 16.4117 187.617 15.66 187.257 15.0481C186.905 14.4362 186.364 13.9729 185.634 13.6582C184.912 13.3348 184.002 13.1731 182.902 13.1731H179.048V35.3846H173.334ZM187.93 23.1643L194.647 35.3846H188.339L181.767 23.1643H187.93ZM207.152 8.53146V35.3846H201.437V8.53146H207.152ZM230.23 16.2544C230.125 15.1967 229.671 14.375 228.871 13.7893C228.07 13.2037 226.984 12.9108 225.612 12.9108C224.679 12.9108 223.891 13.0419 223.25 13.3042C222.607 13.5577 222.115 13.9117 221.772 14.3662C221.437 14.8208 221.27 15.3365 221.27 15.9135C221.252 16.3942 221.354 16.8138 221.573 17.1722C221.803 17.5306 222.115 17.8409 222.51 18.1032C222.907 18.3566 223.364 18.5795 223.883 18.7718C224.402 18.9554 224.956 19.1128 225.546 19.2438L227.974 19.8208C229.153 20.0831 230.235 20.4327 231.22 20.8698C232.205 21.3068 233.059 21.8444 233.78 22.4825C234.502 23.1206 235.061 23.8724 235.456 24.7378C235.861 25.6032 236.068 26.5953 236.076 27.7142C236.068 29.3575 235.645 30.7823 234.81 31.9886C233.983 33.1862 232.786 34.1172 231.22 34.7815C229.663 35.4371 227.785 35.7648 225.585 35.7648C223.404 35.7648 221.503 35.4327 219.884 34.7684C218.275 34.104 217.016 33.1206 216.11 31.8182C215.213 30.507 214.742 28.8855 214.698 26.9537H220.228C220.289 27.854 220.548 28.6058 221.006 29.2089C221.472 29.8033 222.093 30.2535 222.867 30.5595C223.65 30.8566 224.534 31.0052 225.519 31.0052C226.487 31.0052 227.327 30.8654 228.039 30.5857C228.761 30.3059 229.32 29.9169 229.716 29.4187C230.112 28.9205 230.309 28.3479 230.309 27.7011C230.309 27.0979 230.129 26.5909 229.768 26.1801C229.417 25.7692 228.897 25.4196 228.211 25.1312C227.534 24.8427 226.702 24.5804 225.717 24.3444L222.774 23.6102C220.496 23.0595 218.696 22.1985 217.377 21.0271C216.057 19.8558 215.402 18.278 215.411 16.2937C215.402 14.6678 215.837 13.2474 216.717 12.0323C217.606 10.8173 218.824 9.86885 220.373 9.18708C221.921 8.50523 223.681 8.16431 225.651 8.16431C227.657 8.16431 229.407 8.50523 230.903 9.18708C232.407 9.86885 233.578 10.8173 234.413 12.0323C235.25 13.2474 235.681 14.6547 235.707 16.2544H230.23Z" fill="white"/>
<path d="M172.896 50.5463C172.86 50.1938 172.709 49.9198 172.443 49.7246C172.176 49.5295 171.814 49.4318 171.356 49.4318C171.046 49.4318 170.783 49.4755 170.569 49.5629C170.355 49.6475 170.191 49.7655 170.076 49.9169C169.965 50.0685 169.909 50.2404 169.909 50.4327C169.903 50.5929 169.937 50.7328 170.011 50.8523C170.087 50.9718 170.191 51.0751 170.323 51.1626C170.454 51.2471 170.607 51.3214 170.78 51.3855C170.953 51.4467 171.138 51.4991 171.335 51.5428L172.144 51.7351C172.537 51.8225 172.898 51.9391 173.226 52.0848C173.554 52.2305 173.839 52.4097 174.079 52.6224C174.32 52.8351 174.506 53.0857 174.638 53.3741C174.773 53.6626 174.842 53.9933 174.845 54.3662C174.842 54.9141 174.701 55.389 174.422 55.7911C174.146 56.1902 173.748 56.5006 173.226 56.722C172.707 56.9405 172.081 57.0498 171.348 57.0498C170.62 57.0498 169.987 56.9391 169.447 56.7177C168.911 56.4962 168.491 56.1684 168.189 55.7342C167.89 55.2972 167.733 54.7567 167.718 54.1128H169.562C169.583 54.4128 169.668 54.6635 169.821 54.8645C169.977 55.0626 170.183 55.2127 170.441 55.3147C170.703 55.4138 170.997 55.4633 171.325 55.4633C171.648 55.4633 171.928 55.4167 172.166 55.3235C172.406 55.2302 172.593 55.1005 172.724 54.9345C172.857 54.7684 172.922 54.5775 172.922 54.3619C172.922 54.1608 172.862 53.9918 172.742 53.8549C172.624 53.7179 172.452 53.6014 172.223 53.5052C171.997 53.4091 171.72 53.3217 171.392 53.243L170.411 52.9982C169.651 52.8147 169.051 52.5277 168.612 52.1372C168.172 51.7468 167.953 51.2208 167.956 50.5595C167.953 50.0175 168.098 49.544 168.392 49.139C168.688 48.734 169.094 48.4178 169.61 48.1905C170.126 47.9633 170.713 47.8496 171.369 47.8496C172.038 47.8496 172.622 47.9633 173.121 48.1905C173.621 48.4178 174.012 48.734 174.29 49.139C174.569 49.544 174.712 50.0131 174.722 50.5463H172.896ZM179.269 47.972V56.9231H177.365V47.972H179.269ZM186.962 50.5463C186.927 50.1938 186.776 49.9198 186.509 49.7246C186.242 49.5295 185.88 49.4318 185.423 49.4318C185.111 49.4318 184.849 49.4755 184.635 49.5629C184.421 49.6475 184.257 49.7655 184.143 49.9169C184.031 50.0685 183.976 50.2404 183.976 50.4327C183.969 50.5929 184.003 50.7328 184.076 50.8523C184.153 50.9718 184.257 51.0751 184.389 51.1626C184.521 51.2471 184.673 51.3214 184.847 51.3855C185.019 51.4467 185.204 51.4991 185.401 51.5428L186.21 51.7351C186.603 51.8225 186.964 51.9391 187.292 52.0848C187.62 52.2305 187.905 52.4097 188.145 52.6224C188.386 52.8351 188.572 53.0857 188.704 53.3741C188.839 53.6626 188.908 53.9933 188.911 54.3662C188.908 54.9141 188.767 55.389 188.488 55.7911C188.213 56.1902 187.814 56.5006 187.292 56.722C186.773 56.9405 186.147 57.0498 185.414 57.0498C184.686 57.0498 184.053 56.9391 183.513 56.7177C182.977 56.4962 182.557 56.1684 182.255 55.7342C181.956 55.2972 181.799 54.7567 181.785 54.1128H183.628C183.648 54.4128 183.735 54.6635 183.887 54.8645C184.043 55.0626 184.25 55.2127 184.507 55.3147C184.768 55.4138 185.063 55.4633 185.392 55.4633C185.714 55.4633 185.995 55.4167 186.232 55.3235C186.472 55.2302 186.659 55.1005 186.791 54.9345C186.922 54.7684 186.989 54.5775 186.989 54.3619C186.989 54.1608 186.928 53.9918 186.808 53.8549C186.691 53.7179 186.518 53.6014 186.289 53.5052C186.064 53.4091 185.786 53.3217 185.457 53.243L184.476 52.9982C183.717 52.8147 183.118 52.5277 182.678 52.1372C182.237 51.7468 182.019 51.2208 182.022 50.5595C182.019 50.0175 182.165 49.544 182.457 49.139C182.754 48.734 183.16 48.4178 183.676 48.1905C184.192 47.9633 184.779 47.8496 185.436 47.8496C186.105 47.8496 186.688 47.9633 187.186 48.1905C187.688 48.4178 188.078 48.734 188.357 49.139C188.635 49.544 188.779 50.0131 188.788 50.5463H186.962ZM191.087 49.5323V47.972H198.486V49.5323H195.729V56.9231H193.846V49.5323H191.087ZM200.944 56.9231V47.972H207.014V49.5323H202.848V51.6652H206.701V53.2255H202.848V55.3628H207.032V56.9231H200.944ZM209.767 47.972H212.116L214.597 53.986H214.703L217.183 47.972H219.532V56.9231H217.685V51.097H217.61L215.279 56.8794H214.02L211.689 51.0751H211.614V56.9231H209.767V47.972ZM223.893 56.9231H221.852L224.962 47.972H227.416L230.522 56.9231H228.481L226.225 50.0175H226.154L223.893 56.9231ZM223.765 53.4047H228.587V54.882H223.765V53.4047ZM237.527 50.5463C237.492 50.1938 237.341 49.9198 237.074 49.7246C236.807 49.5295 236.444 49.4318 235.987 49.4318C235.676 49.4318 235.414 49.4755 235.199 49.5629C234.986 49.6475 234.821 49.7655 234.707 49.9169C234.595 50.0685 234.54 50.2404 234.54 50.4327C234.534 50.5929 234.568 50.7328 234.641 50.8523C234.717 50.9718 234.821 51.0751 234.953 51.1626C235.085 51.2471 235.238 51.3214 235.411 51.3855C235.584 51.4467 235.768 51.4991 235.965 51.5428L236.775 51.7351C237.167 51.8225 237.528 51.9391 237.856 52.0848C238.185 52.2305 238.469 52.4097 238.71 52.6224C238.95 52.8351 239.137 53.0857 239.268 53.3741C239.403 53.6626 239.472 53.9933 239.475 54.3662C239.472 54.9141 239.332 55.389 239.053 55.7911C238.778 56.1902 238.378 56.5006 237.856 56.722C237.338 56.9405 236.711 57.0498 235.978 57.0498C235.251 57.0498 234.618 56.9391 234.078 56.7177C233.541 56.4962 233.122 56.1684 232.82 55.7342C232.521 55.2972 232.364 54.7567 232.349 54.1128H234.192C234.213 54.4128 234.3 54.6635 234.452 54.8645C234.607 55.0626 234.814 55.2127 235.072 55.3147C235.333 55.4138 235.627 55.4633 235.956 55.4633C236.279 55.4633 236.559 55.4167 236.796 55.3235C237.037 55.2302 237.223 55.1005 237.355 54.9345C237.487 54.7684 237.553 54.5775 237.553 54.3619C237.553 54.1608 237.493 53.9918 237.372 53.8549C237.256 53.7179 237.082 53.6014 236.854 53.5052C236.628 53.4091 236.351 53.3217 236.022 53.243L235.041 52.9982C234.282 52.8147 233.682 52.5277 233.242 52.1372C232.802 51.7468 232.584 51.2208 232.586 50.5595C232.584 50.0175 232.729 49.544 233.022 49.139C233.319 48.734 233.724 48.4178 234.241 48.1905C234.756 47.9633 235.343 47.8496 236.001 47.8496C236.669 47.8496 237.252 47.9633 237.751 48.1905C238.253 48.4178 238.642 48.734 238.921 49.139C239.2 49.544 239.344 50.0131 239.352 50.5463H237.527Z" fill="white"/>
</svg>
